<svg width="237" height="333" viewBox="0 0 237 333" fill="none" xmlns="http://www.w3.org/2000/svg">
<path d="M14 68H237L227 304L237 333H14L25 304L14 68Z" fill="#D9D9D9" fill-opacity="0.3"/>
<path d="M74.5 42.9214C152.5 220.343 169.423 59.3425 201 42.9212C232.577 26.4999 215.077 308 215.077 308H41.8497C41.8497 308 -3.5 -134.5 74.5 42.9214Z" fill="#FF4B4B"/>
<path d="M14 68H237L227 304L237 333H14L25 304L14 68Z" fill="#D9D9D9" fill-opacity="0.3"/>
<path d="M18.1879 91.0409C21.384 107.75 13.2342 123.049 5.91958 112.759C-1.39505 102.469 14.6785 95.4692 14.6785 91.1777L14.605 89.4692C14.605 89.4692 14.9917 74.3317 18.1879 91.0409Z" fill="#FF4B4B"/>
<g filter="url(#filter0_d_233_26)">
<path d="M71.35 188.575C73.25 188.575 74.8917 188.933 76.275 189.65C77.675 190.35 78.7417 191.358 79.475 192.675C80.225 193.992 80.6 195.542 80.6 197.325C80.6 199.108 80.225 200.658 79.475 201.975C78.7417 203.275 77.675 204.275 76.275 204.975C74.8917 205.658 73.25 206 71.35 206H65.925V188.575H71.35ZM71.35 204.125C73.6 204.125 75.3167 203.533 76.5 202.35C77.6833 201.15 78.275 199.475 78.275 197.325C78.275 195.158 77.675 193.467 76.475 192.25C75.2917 191.033 73.5833 190.425 71.35 190.425H68.2V204.125H71.35ZM92.7758 206L88.6258 198.875H85.8758V206H83.6008V188.575H89.2258C90.5424 188.575 91.6508 188.8 92.5508 189.25C93.4674 189.7 94.1508 190.308 94.6008 191.075C95.0508 191.842 95.2758 192.717 95.2758 193.7C95.2758 194.9 94.9258 195.958 94.2258 196.875C93.5424 197.792 92.5091 198.4 91.1258 198.7L95.5008 206H92.7758ZM85.8758 197.05H89.2258C90.4591 197.05 91.3841 196.75 92.0008 196.15C92.6174 195.533 92.9258 194.717 92.9258 193.7C92.9258 192.667 92.6174 191.867 92.0008 191.3C91.4008 190.733 90.4758 190.45 89.2258 190.45H85.8758V197.05ZM101.086 188.575V206H98.8107V188.575H101.086ZM118.663 206H116.388L107.238 192.125V206H104.963V188.55H107.238L116.388 202.4V188.55H118.663V206ZM131.991 206L124.816 198.05V206H122.541V188.575H124.816V196.65L132.016 188.575H134.891L126.991 197.3L134.966 206H131.991ZM145.407 206.175C143.79 206.175 142.315 205.8 140.982 205.05C139.649 204.283 138.59 203.225 137.807 201.875C137.04 200.508 136.657 198.975 136.657 197.275C136.657 195.575 137.04 194.05 137.807 192.7C138.59 191.333 139.649 190.275 140.982 189.525C142.315 188.758 143.79 188.375 145.407 188.375C147.04 188.375 148.524 188.758 149.857 189.525C151.19 190.275 152.24 191.325 153.007 192.675C153.774 194.025 154.157 195.558 154.157 197.275C154.157 198.992 153.774 200.525 153.007 201.875C152.24 203.225 151.19 204.283 149.857 205.05C148.524 205.8 147.04 206.175 145.407 206.175ZM145.407 204.2C146.624 204.2 147.715 203.917 148.682 203.35C149.665 202.783 150.432 201.975 150.982 200.925C151.549 199.875 151.832 198.658 151.832 197.275C151.832 195.875 151.549 194.658 150.982 193.625C150.432 192.575 149.674 191.767 148.707 191.2C147.74 190.633 146.64 190.35 145.407 190.35C144.174 190.35 143.074 190.633 142.107 191.2C141.14 191.767 140.374 192.575 139.807 193.625C139.257 194.658 138.982 195.875 138.982 197.275C138.982 198.658 139.257 199.875 139.807 200.925C140.374 201.975 141.14 202.783 142.107 203.35C143.09 203.917 144.19 204.2 145.407 204.2ZM166.335 206L162.185 198.875H159.435V206H157.16V188.575H162.785C164.102 188.575 165.21 188.8 166.11 189.25C167.027 189.7 167.71 190.308 168.16 191.075C168.61 191.842 168.835 192.717 168.835 193.7C168.835 194.9 168.485 195.958 167.785 196.875C167.102 197.792 166.069 198.4 164.685 198.7L169.06 206H166.335ZM159.435 197.05H162.785C164.019 197.05 164.944 196.75 165.56 196.15C166.177 195.533 166.485 194.717 166.485 193.7C166.485 192.667 166.177 191.867 165.56 191.3C164.96 190.733 164.035 190.45 162.785 190.45H159.435V197.05ZM184.57 188.575L178.895 199.425V206H176.62V199.425L170.92 188.575H173.445L177.745 197.4L182.045 188.575H184.57Z" fill="white"/>
</g>
<defs>
<filter id="filter0_d_233_26" x="61.925" y="188.375" width="126.645" height="25.8" filterUnits="userSpaceOnUse" color-interpolation-filters="sRGB">
<feFlood flood-opacity="0" result="BackgroundImageFix"/>
<feColorMatrix in="SourceAlpha" type="matrix" values="0 0 0 0 0 0 0 0 0 0 0 0 0 0 0 0 0 0 127 0" result="hardAlpha"/>
<feOffset dy="4"/>
<feGaussianBlur stdDeviation="2"/>
<feComposite in2="hardAlpha" operator="out"/>
<feColorMatrix type="matrix" values="0 0 0 0 0 0 0 0 0 0 0 0 0 0 0 0 0 0 0.25 0"/>
<feBlend mode="normal" in2="BackgroundImageFix" result="effect1_dropShadow_233_26"/>
<feBlend mode="normal" in="SourceGraphic" in2="effect1_dropShadow_233_26" result="shape"/>
</filter>
</defs>
</svg>
