<svg width="237" height="333" viewBox="0 0 237 333" fill="none" xmlns="http://www.w3.org/2000/svg">
<path d="M14 68H237L227 304L237 333H14L25 304L14 68Z" fill="#D9D9D9" fill-opacity="0.3"/>
<path d="M74.5 42.9214C152.5 220.343 169.423 59.3425 201 42.9212C232.577 26.4999 215.077 308 215.077 308H41.8497C41.8497 308 -3.5 -134.5 74.5 42.9214Z" fill="#FF8181"/>
<path d="M14 68H237L227 304L237 333H14L25 304L14 68Z" fill="#D9D9D9" fill-opacity="0.3"/>
<path d="M18.1879 91.0409C21.384 107.75 13.2342 123.049 5.91958 112.759C-1.39505 102.469 14.6785 95.4692 14.6785 91.1777L14.605 89.4692C14.605 89.4692 14.9917 74.3317 18.1879 91.0409Z" fill="#FF8181"/>
<path d="M48.82 190.09C51.1 190.09 53.07 190.52 54.73 191.38C56.41 192.22 57.69 193.43 58.57 195.01C59.47 196.59 59.92 198.45 59.92 200.59C59.92 202.73 59.47 204.59 58.57 206.17C57.69 207.73 56.41 208.93 54.73 209.77C53.07 210.59 51.1 211 48.82 211H42.31V190.09H48.82ZM48.82 208.75C51.52 208.75 53.58 208.04 55 206.62C56.42 205.18 57.13 203.17 57.13 200.59C57.13 197.99 56.41 195.96 54.97 194.5C53.55 193.04 51.5 192.31 48.82 192.31H45.04V208.75H48.82ZM66.2509 197.23C66.7309 196.29 67.4109 195.56 68.2909 195.04C69.1909 194.52 70.2809 194.26 71.5609 194.26V197.08H70.8409C67.7809 197.08 66.2509 198.74 66.2509 202.06V211H63.5209V194.56H66.2509V197.23ZM76.1223 191.89C75.6023 191.89 75.1623 191.71 74.8023 191.35C74.4423 190.99 74.2623 190.55 74.2623 190.03C74.2623 189.51 74.4423 189.07 74.8023 188.71C75.1623 188.35 75.6023 188.17 76.1223 188.17C76.6223 188.17 77.0423 188.35 77.3823 188.71C77.7423 189.07 77.9223 189.51 77.9223 190.03C77.9223 190.55 77.7423 190.99 77.3823 191.35C77.0423 191.71 76.6223 191.89 76.1223 191.89ZM77.4423 194.56V211H74.7123V194.56H77.4423ZM90.1052 194.26C92.1052 194.26 93.7252 194.87 94.9652 196.09C96.2052 197.29 96.8252 199.03 96.8252 201.31V211H94.1252V201.7C94.1252 200.06 93.7152 198.81 92.8952 197.95C92.0752 197.07 90.9552 196.63 89.5352 196.63C88.0952 196.63 86.9452 197.08 86.0852 197.98C85.2452 198.88 84.8252 200.19 84.8252 201.91V211H82.0952V194.56H84.8252V196.9C85.3652 196.06 86.0952 195.41 87.0152 194.95C87.9552 194.49 88.9852 194.26 90.1052 194.26ZM110.465 211L104.015 203.74V211H101.285V188.8H104.015V201.85L110.345 194.56H114.155L106.415 202.75L114.185 211H110.465ZM127.194 200.23C127.954 200.35 128.644 200.66 129.264 201.16C129.904 201.66 130.404 202.28 130.764 203.02C131.144 203.76 131.334 204.55 131.334 205.39C131.334 206.45 131.064 207.41 130.524 208.27C129.984 209.11 129.194 209.78 128.154 210.28C127.134 210.76 125.924 211 124.524 211H116.724V190.09H124.224C125.644 190.09 126.854 190.33 127.854 190.81C128.854 191.27 129.604 191.9 130.104 192.7C130.604 193.5 130.854 194.4 130.854 195.4C130.854 196.64 130.514 197.67 129.834 198.49C129.174 199.29 128.294 199.87 127.194 200.23ZM119.454 199.12H124.044C125.324 199.12 126.314 198.82 127.014 198.22C127.714 197.62 128.064 196.79 128.064 195.73C128.064 194.67 127.714 193.84 127.014 193.24C126.314 192.64 125.304 192.34 123.984 192.34H119.454V199.12ZM124.284 208.75C125.644 208.75 126.704 208.43 127.464 207.79C128.224 207.15 128.604 206.26 128.604 205.12C128.604 203.96 128.204 203.05 127.404 202.39C126.604 201.71 125.534 201.37 124.194 201.37H119.454V208.75H124.284ZM149.703 194.56V211H146.973V208.57C146.453 209.41 145.723 210.07 144.783 210.55C143.863 211.01 142.843 211.24 141.723 211.24C140.443 211.24 139.293 210.98 138.273 210.46C137.253 209.92 136.443 209.12 135.843 208.06C135.263 207 134.973 205.71 134.973 204.19V194.56H137.673V203.83C137.673 205.45 138.083 206.7 138.903 207.58C139.723 208.44 140.843 208.87 142.263 208.87C143.723 208.87 144.873 208.42 145.713 207.52C146.553 206.62 146.973 205.31 146.973 203.59V194.56H149.703ZM153.292 202.72C153.292 201.04 153.632 199.57 154.312 198.31C154.992 197.03 155.922 196.04 157.102 195.34C158.302 194.64 159.642 194.29 161.122 194.29C162.402 194.29 163.592 194.59 164.692 195.19C165.792 195.77 166.632 196.54 167.212 197.5V188.8H169.972V211H167.212V207.91C166.672 208.89 165.872 209.7 164.812 210.34C163.752 210.96 162.512 211.27 161.092 211.27C159.632 211.27 158.302 210.91 157.102 210.19C155.922 209.47 154.992 208.46 154.312 207.16C153.632 205.86 153.292 204.38 153.292 202.72ZM167.212 202.75C167.212 201.51 166.962 200.43 166.462 199.51C165.962 198.59 165.282 197.89 164.422 197.41C163.582 196.91 162.652 196.66 161.632 196.66C160.612 196.66 159.682 196.9 158.842 197.38C158.002 197.86 157.332 198.56 156.832 199.48C156.332 200.4 156.082 201.48 156.082 202.72C156.082 203.98 156.332 205.08 156.832 206.02C157.332 206.94 158.002 207.65 158.842 208.15C159.682 208.63 160.612 208.87 161.632 208.87C162.652 208.87 163.582 208.63 164.422 208.15C165.282 207.65 165.962 206.94 166.462 206.02C166.962 205.08 167.212 203.99 167.212 202.75ZM173.565 202.72C173.565 201.04 173.905 199.57 174.585 198.31C175.265 197.03 176.195 196.04 177.375 195.34C178.575 194.64 179.915 194.29 181.395 194.29C182.675 194.29 183.865 194.59 184.965 195.19C186.065 195.77 186.905 196.54 187.485 197.5V188.8H190.245V211H187.485V207.91C186.945 208.89 186.145 209.7 185.085 210.34C184.025 210.96 182.785 211.27 181.365 211.27C179.905 211.27 178.575 210.91 177.375 210.19C176.195 209.47 175.265 208.46 174.585 207.16C173.905 205.86 173.565 204.38 173.565 202.72ZM187.485 202.75C187.485 201.51 187.235 200.43 186.735 199.51C186.235 198.59 185.555 197.89 184.695 197.41C183.855 196.91 182.925 196.66 181.905 196.66C180.885 196.66 179.955 196.9 179.115 197.38C178.275 197.86 177.605 198.56 177.105 199.48C176.605 200.4 176.355 201.48 176.355 202.72C176.355 203.98 176.605 205.08 177.105 206.02C177.605 206.94 178.275 207.65 179.115 208.15C179.955 208.63 180.885 208.87 181.905 208.87C182.925 208.87 183.855 208.63 184.695 208.15C185.555 207.65 186.235 206.94 186.735 206.02C187.235 205.08 187.485 203.99 187.485 202.75ZM209.019 194.56L199.119 218.74H196.299L199.539 210.82L192.909 194.56H195.939L201.099 207.88L206.199 194.56H209.019Z" fill="white"/>
</svg>
