<svg xmlns="http://www.w3.org/2000/svg" version="1.1" xmlns:xlink="http://www.w3.org/1999/xlink" xmlns:svgjs="http://svgjs.dev/svgjs" width="100%" height="100%" viewBox="0 0 1000 600"><rect width="1000" height="600" x="0" y="0" fill="black"/><g><rect width="333.3333333333333" height="333.3333333333333" y="227.2103055992074" fill="whitesmoke" transform="matrix(0.6097914635144915,0,0,0.6097914635144916,0,59.8171605379943)" x="204.98811340332028"/><path d="M369.93608915817447 393.78807494516195L369.93608915817447 393.78807494516195Q369.93608915817447 409.34516733190173 364.3059033420211 422.8872458475971Q358.6460849689405 436.4589569202196 348.60064817064574 446.8007192877857Q338.584843929278 457.14248165535173 325.36872353978094 463.00972792692215Q312.12297059335685 468.8769741984926 296.77330610510694 468.8769741984926L296.77330610510694 468.8769741984926L253.24307997916264 468.8769741984926L253.24307997916264 318.876971033394L296.77330610510694 318.876971033394Q312.12297059335685 318.876971033394 325.45762121056237 324.7442173049645Q338.7922718277679 330.6114635765349 348.83770862606264 340.9828585010281Q358.85351286743037 351.32462086859414 364.3948010128024 364.8666993842895Q369.93608915817447 378.4087778999849 369.93608915817447 393.78807494516195ZM352.6603084696616 393.78807494516195L352.6603084696616 393.78807494516195Q352.6603084696616 377.54943374909834 345.311434351735 364.3333133596013Q337.93292767688126 351.11719297010427 325.36872353978094 343.2053002705623Q312.7748868457535 335.32304012794754 296.77330610510694 335.32304012794754L296.77330610510694 335.32304012794754L270.31143276918567 335.32304012794754L270.31143276918567 452.2234772054492L296.77330610510694 452.2234772054492Q312.7748868457535 452.2234772054492 325.36872353978094 444.22268683512596Q337.93292767688126 436.2218964648026 345.311434351735 422.8872458475971Q352.6603084696616 409.5525952303916 352.6603084696616 393.78807494516195ZM451.87010906167063 468.8769741984926L389.13798604695046 468.8769741984926L389.13798604695046 319.52888728579074L445.05462096843235 319.52888728579074Q456.13719725917645 319.52888728579074 464.58247598340665 324.8627475326729Q472.9981221507097 330.19660777955517 477.7985963729036 339.2641701992549Q482.5990705950976 348.3317326189547 482.5990705950976 359.41430890969883L482.5990705950976 359.41430890969883Q482.5990705950976 368.18554576012735 479.60618234545814 375.20846175185557Q476.6132940958188 382.2610103005109 470.21266179956 390.14327044312574L470.21266179956 390.14327044312574Q480.46552649634475 396.9883910932912 485.26600071853875 406.055953512991Q490.06647494073275 415.1235159326908 490.06647494073275 425.5541759710382L490.06647494073275 425.5541759710382Q490.06647494073275 433.46606867058017 487.0735866910933 441.2594311424136Q484.0806984414538 449.02316105731995 478.74683819457164 455.2163654550887Q473.41297794768934 461.40956985285743 466.4789596267425 465.14327202567506Q459.54494130579565 468.8769741984926 451.87010906167063 468.8769741984926L451.87010906167063 468.8769741984926ZM406.2063388369736 336.5972400758138L406.2063388369736 386.08361014410985L444.4027047160356 386.08361014410985Q450.18105331682466 386.08361014410985 454.8629973113101 382.1424800728024Q459.54494130579565 378.20135000149503 462.4489318846537 372.12667583143474Q465.3232899065847 366.05200166137445 465.3232899065847 359.41430890969883L465.3232899065847 359.41430890969883Q465.3232899065847 350.0504209207278 459.87089943199396 343.3238304982708Q454.44814151433036 336.5972400758138 445.05462096843235 336.5972400758138L445.05462096843235 336.5972400758138L406.2063388369736 336.5972400758138ZM406.2063388369736 402.32225134017347L406.2063388369736 451.80862140846955L451.87010906167063 451.80862140846955Q457.8558855609497 451.80862140846955 462.5378295554351 447.7489611094536Q467.2494061068477 443.6893008104377 470.00523390107026 437.73315686808587Q472.79069425221985 431.747380368807 472.79069425221985 425.5541759710382L472.79069425221985 425.5541759710382Q472.79069425221985 416.1902879820672 467.2494061068477 409.2562696611203Q461.6784854045485 402.32225134017347 452.5220253140674 402.32225134017347L452.5220253140674 402.32225134017347L406.2063388369736 402.32225134017347Z " fill="black" transform="matrix(0.6097914635144915,0,0,0.6097914635144916,0,59.8171605379943)"/><path d="M715.4166820732297 379.06744784583725L715.4166820732297 379.06744784583725Q715.4166820732297 391.56744784583725 710.8928725494202 402.44840022678966Q706.3452535018012 413.3531621315515 698.2738249303726 421.6626859410753Q690.2262058827536 429.9722097505992 679.6071582637059 434.6864954648849Q668.9643011208487 439.4007811791706 656.6309677875155 439.4007811791706L656.6309677875155 439.4007811791706L621.6547773113249 439.4007811791706L621.6547773113249 318.87697165536105L656.6309677875155 318.87697165536105Q668.9643011208487 318.87697165536105 679.6785868351345 323.59125736964677Q690.3928725494202 328.3055430839325 698.4643011208487 336.63887641726586Q706.5119201684678 344.9484002267896 710.9643011208487 355.829352607742Q715.4166820732297 366.7103049886944 715.4166820732297 379.06744784583725ZM701.5357296922774 379.06744784583725L701.5357296922774 379.06744784583725Q701.5357296922774 366.0198287982182 695.6309677875155 355.40078117917056Q689.702396358944 344.781733560123 679.6071582637059 338.4245907029801Q669.4881106446584 332.09125736964677 656.6309677875155 332.09125736964677L656.6309677875155 332.09125736964677L635.3690630256107 332.09125736964677L635.3690630256107 426.0198287982182L656.6309677875155 426.0198287982182Q669.4881106446584 426.0198287982182 679.6071582637059 419.59125736964677Q689.702396358944 413.1626859410754 695.6309677875155 402.44840022678966Q701.5357296922774 391.73411451250394 701.5357296922774 379.06744784583725ZM744.3928725494202 439.4007811791706L730.8452535018012 439.4007811791706L730.8452535018012 354.7103049886944L744.3928725494202 354.7103049886944L744.3928725494202 362.59125736964677Q750.0595392160868 356.25792403631345 758.3690630256107 354.87697165536105Q766.6785868351345 353.5198287982182 779.3690630256107 357.1150668934563L779.3690630256107 357.1150668934563L773.0357296922774 369.1150668934563Q765.3214439779916 366.37697165536105 758.702396358944 368.1626859410753Q752.107158263706 369.9722097505992 748.1785868351345 374.42459070298014Q744.2262058827536 378.87697165536105 744.3928725494202 384.0198287982182L744.3928725494202 384.0198287982182L744.3928725494202 439.4007811791706ZM798.7500154065631 342.37697165536105L798.7500154065631 342.37697165536105Q794.9643011208487 342.37697165536105 792.3214439779916 339.7103049886944Q789.654777311325 337.06744784583725 789.654777311325 333.281733560123L789.654777311325 333.281733560123Q789.654777311325 329.5198287982182 792.3214439779916 326.8531621315515Q794.9643011208487 324.2103049886944 798.7500154065631 324.2103049886944L798.7500154065631 324.2103049886944Q802.5119201684678 324.2103049886944 805.1785868351345 326.8531621315515Q807.8214439779916 329.5198287982182 807.8214439779916 333.281733560123L807.8214439779916 333.281733560123Q807.8214439779916 337.06744784583725 805.1785868351345 339.7103049886944Q802.5119201684678 342.37697165536105 798.7500154065631 342.37697165536105ZM805.2500154065631 353.6864954648849L805.2500154065631 439.4007811791706L792.3928725494202 439.4007811791706L792.3928725494202 353.6864954648849L805.2500154065631 353.6864954648849ZM900.0595392160868 388.4960192744087L900.0595392160868 439.4007811791706L886.5119201684678 439.4007811791706L886.5119201684678 388.4960192744087Q886.5119201684678 380.25792403631345 882.9881106446584 375.281733560123Q879.4881106446584 370.3055430839325 874.0833487398965 368.1626859410753Q868.6785868351345 366.0198287982182 862.8452535018012 366.0198287982182L862.8452535018012 366.0198287982182Q857.202396358944 366.0198287982182 851.6309677875155 368.42459070298014Q846.0595392160868 370.829352607742 842.2738249303726 375.8055430839325Q838.5119201684678 380.781733560123 838.5119201684678 388.4960192744087L838.5119201684678 388.4960192744087L838.5119201684678 439.4007811791706L824.9643011208487 439.4007811791706L824.9643011208487 353.6864954648849L838.5119201684678 353.6864954648849L838.5119201684678 362.94840022678966Q842.4643011208487 357.6388764172658 849.3214439779916 355.1388764172658Q856.1785868351345 352.6626859410753 863.5357296922774 352.6626859410753L863.5357296922774 352.6626859410753Q873.4881106446584 352.6626859410753 881.7976344541821 356.781733560123Q890.1071582637059 360.8769716553611 895.0833487398965 368.8531621315515Q900.0595392160868 376.829352607742 900.0595392160868 388.4960192744087L900.0595392160868 388.4960192744087ZM929.202396358944 439.4007811791706L915.4881106446584 439.4007811791706L915.4881106446584 319.40078117917056L929.202396358944 319.40078117917056L929.202396358944 382.3055430839325L957.654777311325 354.87697165536105L976.5119201684678 354.87697165536105L941.2023963589439 389.8531621315515L978.2262058827536 439.4007811791706L962.4643011208487 439.4007811791706L930.750015406563 399.1150668934563L929.202396358944 401.8531621315516L929.202396358944 439.4007811791706ZM1044.0595392160867 439.4007811791706L993.654777311325 439.4007811791706L993.654777311325 319.40078117917056L1038.5595392160867 319.40078117917056Q1047.4881106446583 319.40078117917056 1054.2500154065629 323.6864954648849Q1061.0357296922775 327.9722097505992 1064.8928725494202 335.25792403631345Q1068.7500154065629 342.54363832202773 1068.7500154065629 351.44840022678966L1068.7500154065629 351.44840022678966Q1068.7500154065629 358.4960192744087 1066.3452535018014 364.1388764172658Q1063.9404915970395 369.8055430839325 1058.7976344541821 376.1388764172658L1058.7976344541821 376.1388764172658Q1067.0357296922775 381.6388764172658 1070.8928725494202 388.92459070298014Q1074.7500154065633 396.2103049886944 1074.7500154065633 404.59125736964677L1074.7500154065633 404.59125736964677Q1074.7500154065633 410.94840022678966 1072.3452535018014 417.2103049886944Q1069.9404915970395 423.44840022678966 1065.6547773113252 428.42459070298014Q1061.3690630256106 433.40078117917056 1055.7976344541821 436.4007811791706Q1050.2262058827537 439.4007811791706 1044.0595392160867 439.4007811791706L1044.0595392160867 439.4007811791706ZM1007.3690630256107 333.1150668934563L1007.3690630256107 372.87697165536105L1038.0595392160867 372.87697165536105Q1042.6785868351344 372.87697165536105 1046.4643011208486 369.7103049886944Q1050.2262058827537 366.54363832202773 1052.5357296922775 361.6626859410753Q1054.8452535018014 356.781733560123 1054.8452535018014 351.44840022678966L1054.8452535018014 351.44840022678966Q1054.8452535018014 343.9245907029801 1050.4881106446583 338.5198287982182Q1046.107158263706 333.1150668934563 1038.5595392160867 333.1150668934563L1038.5595392160867 333.1150668934563L1007.3690630256107 333.1150668934563ZM1007.3690630256107 385.92459070298014L1007.3690630256107 425.68649546488484L1044.0595392160867 425.68649546488484Q1048.8452535018014 425.68649546488484 1052.6309677875156 422.42459070298014Q1056.3928725494202 419.1626859410753 1058.6309677875156 414.37697165536105Q1060.8452535018014 409.56744784583725 1060.8452535018014 404.59125736964677L1060.8452535018014 404.59125736964677Q1060.8452535018014 397.06744784583725 1056.3928725494202 391.4960192744087Q1051.9404915970395 385.92459070298014 1044.5595392160867 385.92459070298014L1044.5595392160867 385.92459070298014L1007.3690630256107 385.92459070298014ZM1163.3690630256106 353.6864954648849L1163.3690630256106 439.4007811791706L1149.8214439779917 439.4007811791706L1149.8214439779917 430.4960192744087Q1146.3928725494202 435.6388764172658 1140.0595392160872 438.2103049886944Q1133.702396358944 440.781733560123 1126.1785868351344 441.0198287982182Q1118.6309677875156 441.281733560123 1111.4166820732298 439.1388764172658Q1104.2262058827537 436.9960192744087 1099.2500154065633 432.54363832202773L1099.2500154065633 432.54363832202773Q1094.107158263706 428.09125736964677 1091.2738249303725 421.23411451250394Q1088.4643011208486 414.37697165536105 1088.4643011208486 405.44840022678966L1088.4643011208486 405.44840022678966L1088.4643011208486 353.6864954648849L1102.1785868351344 353.6864954648849L1102.1785868351344 405.44840022678966Q1102.1785868351344 417.281733560123 1108.9404915970395 422.781733560123Q1115.702396358944 428.25792403631345 1126.3452535018014 428.25792403631345L1126.3452535018014 428.25792403631345Q1131.6547773113252 428.25792403631345 1137.0595392160867 425.8531621315515Q1142.464301120849 423.44840022678966 1146.1309677875156 418.4007811791706Q1149.8214439779917 413.3531621315515 1149.8214439779917 405.44840022678966L1149.8214439779917 405.44840022678966L1149.8214439779917 353.6864954648849L1163.3690630256106 353.6864954648849ZM1210.511920168468 439.23411451250394L1210.511920168468 439.23411451250394Q1200.2262058827537 438.0198287982182 1193.107158263706 432.0198287982182Q1185.9881106446583 426.0198287982182 1182.3928725494202 416.68649546488484Q1178.7976344541821 407.3531621315515 1178.7976344541821 395.68649546488484L1178.7976344541821 395.68649546488484Q1178.7976344541821 383.1626859410753 1183.3452535018014 373.4960192744087Q1187.8928725494202 363.8055430839325 1196.5357296922775 358.23411451250394Q1205.202396358944 352.6626859410753 1217.5357296922775 352.6626859410753L1217.5357296922775 352.6626859410753Q1222.511920168468 352.6626859410753 1227.9166820732298 353.3531621315515Q1233.3214439779917 354.0198287982182 1239.6547773113252 357.281733560123L1239.6547773113252 357.281733560123L1239.6547773113252 319.40078117917056L1253.202396358944 319.40078117917056L1253.202396358944 439.4007811791706L1239.6547773113252 439.4007811791706L1239.6547773113252 431.3531621315515Q1234.845253501801 435.44840022678966 1226.9643011208486 438.0198287982182Q1219.0833487398963 440.59125736964677 1210.511920168468 439.23411451250394ZM1239.6547773113252 419.8531621315515L1239.6547773113252 419.8531621315515L1239.6547773113252 370.1388764172658Q1227.3214439779917 364.9960192744087 1216.607158263706 366.2103049886944Q1205.8928725494202 367.4007811791706 1199.202396358944 374.8531621315515Q1192.511920168468 382.3055430839325 1192.511920168468 395.68649546488484L1192.511920168468 395.68649546488484Q1192.511920168468 406.4960192744087 1196.5357296922775 413.781733560123Q1200.5595392160872 421.06744784583725 1207.4166820732298 424.4960192744087Q1214.2738249303725 427.92459070298014 1222.607158263706 426.87697165536105Q1230.9166820732298 425.8531621315515 1239.6547773113252 419.8531621315515ZM1300.345253501801 439.23411451250394L1300.345253501801 439.23411451250394Q1290.0595392160867 438.0198287982182 1282.940491597039 432.0198287982182Q1275.8214439779917 426.0198287982182 1272.2262058827532 416.68649546488484Q1268.6309677875156 407.3531621315515 1268.6309677875156 395.68649546488484L1268.6309677875156 395.68649546488484Q1268.6309677875156 383.1626859410753 1273.1785868351344 373.4960192744087Q1277.702396358944 363.8055430839325 1286.3690630256106 358.23411451250394Q1295.0357296922775 352.6626859410753 1307.3690630256106 352.6626859410753L1307.3690630256106 352.6626859410753Q1312.345253501801 352.6626859410753 1317.7500154065629 353.3531621315515Q1323.1309677875156 354.0198287982182 1329.4881106446583 357.281733560123L1329.4881106446583 357.281733560123L1329.4881106446583 319.40078117917056L1343.035729692277 319.40078117917056L1343.035729692277 439.4007811791706L1329.4881106446583 439.4007811791706L1329.4881106446583 431.3531621315515Q1324.6785868351344 435.44840022678966 1316.7976344541821 438.0198287982182Q1308.9166820732298 440.59125736964677 1300.345253501801 439.23411451250394ZM1329.4881106446583 419.8531621315515L1329.4881106446583 419.8531621315515L1329.4881106446583 370.1388764172658Q1317.1309677875156 364.9960192744087 1306.4166820732298 366.2103049886944Q1295.702396358944 367.4007811791706 1289.035729692277 374.8531621315515Q1282.345253501801 382.3055430839325 1282.345253501801 395.68649546488484L1282.345253501801 395.68649546488484Q1282.345253501801 406.4960192744087 1286.3690630256106 413.781733560123Q1290.3928725494202 421.06744784583725 1297.2500154065629 424.4960192744087Q1304.107158263706 427.92459070298014 1312.4166820732298 426.87697165536105Q1320.7500154065629 425.8531621315515 1329.4881106446583 419.8531621315515ZM1367.5357296922775 468.8769716553611L1367.5357296922775 468.8769716553611L1367.5357296922775 455.5198287982182Q1372.511920168468 455.5198287982182 1376.7976344541821 453.3769716553611Q1381.0833487398963 451.23411451250394 1383.9881106446583 447.71030498869436Q1386.9166820732298 444.2103049886944 1387.4166820732298 439.92459070298014L1387.4166820732298 439.92459070298014L1355.0357296922775 353.6864954648849L1369.940491597039 353.6864954648849L1395.6547773113252 423.44840022678966L1419.8214439779917 353.6864954648849L1434.9166820732298 353.6864954648849L1404.7500154065629 434.4245907029801Q1400.9643011208486 445.06744784583725 1396.3452535018014 452.68649546488484Q1391.702396358944 460.3055430839325 1384.940491597039 464.5198287982182Q1378.1785868351344 468.71030498869436 1367.5357296922775 468.8769716553611Z " fill="whitesmoke" transform="matrix(0.6097914635144915,0,0,0.6097914635144916,0,59.8171605379943)"/></g></svg>